<svg width="24" height="24" viewBox="0 0 1000 1000" xmlns="http://www.w3.org/2000/svg"><path d="M 100 0C 45 0 0 45 0 100C 0 100 0 900 0 900C 0 955 45 1000 100 1000C 100 1000 900 1000 900 1000C 955 1000 1000 955 1000 900C 1000 900 1000 100 1000 100C 1000 45 955 0 900 0C 900 0 100 0 100 0C 100 0 100 0 100 0M 200 713C 200 713 800 713 800 713C 814 712 826 719 833 731C 840 743 840 757 833 769C 826 781 814 788 800 788C 800 788 200 788 200 788C 186 788 174 781 167 769C 160 757 160 743 167 731C 174 719 186 712 200 713C 200 713 200 713 200 713M 200 462C 200 462 800 462 800 462C 814 462 826 469 833 481C 840 493 840 507 833 519C 826 531 814 538 800 538C 800 538 200 538 200 538C 186 538 174 531 167 519C 160 507 160 493 167 481C 174 469 186 462 200 462C 200 462 200 462 200 462M 200 213C 200 213 800 213 800 213C 814 212 826 219 833 231C 840 243 840 257 833 269C 826 281 814 288 800 287C 800 287 200 287 200 287C 186 288 174 281 167 269C 160 257 160 243 167 231C 174 219 186 212 200 213C 200 213 200 213 200 213"/></svg>