<svg width="26" height="26" viewBox="0 0 26 26" fill="none" xmlns="http://www.w3.org/2000/svg">
<path d="M23.8334 4.34297C22.8903 4.99547 21.8461 5.49453 20.741 5.82092C20.1479 5.15199 19.3596 4.67786 18.4828 4.46268C17.606 4.24749 16.6829 4.30162 15.8385 4.61774C14.9941 4.93387 14.269 5.49674 13.7614 6.23023C13.2537 6.96371 12.988 7.83243 13.0001 8.71888V9.68486C11.2693 9.72888 9.55437 9.35238 8.00789 8.5889C6.46142 7.82542 5.13145 6.69865 4.13645 5.30895C4.13645 5.30895 0.197051 14.0028 9.06069 17.8668C7.03242 19.2172 4.61622 19.8943 2.16675 19.7987C11.0304 24.6287 21.8637 19.7987 21.8637 8.6899C21.8628 8.42083 21.8364 8.15242 21.7849 7.88813C22.7901 6.91586 23.4994 5.68831 23.8334 4.34297Z" stroke="#EEF4FF" stroke-width="2" stroke-linecap="round" stroke-linejoin="round"/>
</svg>
